<svg width="36" height="36" viewBox="0 0 36 36" fill="none" xmlns="http://www.w3.org/2000/svg">
<g clip-path="url(#clip0_124_107)">
<path opacity="0.95" fill-rule="evenodd" clip-rule="evenodd" d="M17.2619 -0.0351562C17.7307 -0.0351562 18.1994 -0.0351562 18.6682 -0.0351562C20.735 0.603656 21.6608 2.0099 21.4455 4.18359C21.3912 4.44046 21.3091 4.68655 21.1994 4.92188C24.9347 6.13752 27.4893 8.5867 28.8635 12.2695C31.4873 12.3514 33.1865 13.6404 33.9612 16.1367C34.3664 18.3482 33.6632 20.106 31.8518 21.4102C31.5236 22.6289 31.1956 23.8477 30.8674 25.0664C30.5687 25.4247 30.2054 25.5068 29.7776 25.3125C29.5133 25.0493 29.4312 24.7329 29.5315 24.3633C29.7037 23.6154 29.903 22.8771 30.1291 22.1484C28.277 22.4412 26.7067 21.9139 25.4182 20.5664C23.8972 22.108 22.0925 22.565 20.0041 21.9375C19.2054 21.6555 18.5258 21.1984 17.9651 20.5664C16.4453 22.1124 14.6406 22.5694 12.551 21.9375C11.7523 21.6555 11.0727 21.1984 10.5119 20.5664C9.22339 21.9139 7.6531 22.4412 5.801 22.1484C6.77868 25.7894 7.75133 29.434 8.71897 33.082C9.06294 33.9649 9.70742 34.4455 10.6526 34.5234C15.6935 34.5921 20.7326 34.5687 25.7698 34.4531C26.3261 34.2719 26.7598 33.932 27.0705 33.4336C27.3735 32.4563 27.6548 31.4719 27.9143 30.4805C28.2194 30.033 28.6062 29.9509 29.0744 30.2344C29.2258 30.4048 29.3195 30.604 29.3557 30.832C29.0863 31.816 28.8167 32.8004 28.5471 33.7852C28.0226 34.9077 27.1671 35.6342 25.9807 35.9648C20.6369 35.9648 15.2932 35.9648 9.94944 35.9648C8.76299 35.6342 7.90749 34.9077 7.38303 33.7852C6.28147 29.6601 5.17991 25.5352 4.07835 21.4102C2.03598 19.8764 1.40317 17.8843 2.17991 15.4336C3.12927 13.3503 4.75818 12.2956 7.06663 12.2695C8.44081 8.5867 10.9955 6.13752 14.7307 4.92188C14.1182 3.29389 14.4463 1.88764 15.7151 0.703125C16.1908 0.359658 16.7065 0.113565 17.2619 -0.0351562ZM17.4729 1.44141C19.2408 1.36943 20.0728 2.21318 19.969 3.97266C19.4455 5.35905 18.4729 5.81608 17.051 5.34375C15.9375 4.62771 15.6445 3.65505 16.1721 2.42578C16.4903 1.93397 16.9239 1.60585 17.4729 1.44141ZM15.6448 6.22266C16.7894 7.04327 18.0316 7.21905 19.3713 6.75C19.6827 6.60218 19.9757 6.4264 20.2502 6.22266C23.4942 7.0991 25.8145 9.06785 27.2112 12.1289C27.3798 12.5411 27.5205 12.963 27.633 13.3945C27.7711 13.6968 28.0056 13.8608 28.3362 13.8867C29.9612 13.598 31.2268 14.1371 32.133 15.5039C32.9483 17.193 32.6787 18.6813 31.3244 19.9688C29.082 21.2949 27.2538 20.8496 25.8401 18.6328C25.5588 18.4922 25.2776 18.4922 24.9963 18.6328C24.6275 19.2362 24.1587 19.7518 23.5901 20.1797C21.8322 21.1219 20.2736 20.8524 18.9143 19.3711C18.7817 19.0941 18.6059 18.848 18.3869 18.6328C18.1057 18.4922 17.8244 18.4922 17.5432 18.6328C17.1743 19.2362 16.7056 19.7518 16.1369 20.1797C14.4229 21.1036 12.8877 20.8575 11.5315 19.4414C11.358 19.1531 11.1587 18.8835 10.9338 18.6328C10.6526 18.4922 10.3713 18.4922 10.0901 18.6328C8.67629 20.8496 6.84818 21.2949 4.60569 19.9688C3.25129 18.6809 2.98177 17.1926 3.7971 15.5039C4.70329 14.1371 5.96891 13.598 7.59397 13.8867C7.92458 13.8608 8.159 13.6968 8.2971 13.3945C9.20188 10.357 11.0886 8.1656 13.9573 6.82031C14.5247 6.61177 15.0872 6.41254 15.6448 6.22266Z" fill="black"/>
<path opacity="0.94" fill-rule="evenodd" clip-rule="evenodd" d="M11.2148 23.3086C11.643 23.2127 11.9595 23.3533 12.1641 23.7304C12.6068 26.2953 13.0403 28.8617 13.4648 31.4296C13.3921 32.0645 13.0406 32.2988 12.4102 32.1328C12.2043 32.0442 12.0754 31.8918 12.0234 31.6757C11.5746 29.1237 11.1411 26.569 10.7227 24.0117C10.7804 23.6972 10.9445 23.4627 11.2148 23.3086Z" fill="black"/>
<path opacity="0.987" fill-rule="evenodd" clip-rule="evenodd" d="M17.6836 23.3086C18.1118 23.2127 18.4282 23.3533 18.6328 23.7304C18.6797 26.4257 18.6797 29.1211 18.6328 31.8164C18.3758 32.1521 18.036 32.2576 17.6133 32.1328C17.4844 32.0507 17.3789 31.9452 17.2969 31.8164C17.25 29.1211 17.25 26.4257 17.2969 23.7304C17.3925 23.553 17.5214 23.4124 17.6836 23.3086Z" fill="black"/>
<path opacity="0.94" fill-rule="evenodd" clip-rule="evenodd" d="M24.1525 23.3086C24.902 23.2261 25.2418 23.5542 25.172 24.2929C24.757 26.8304 24.3116 29.3616 23.8361 31.8867C23.4142 32.2617 22.9923 32.2617 22.5705 31.8867C22.4743 31.659 22.4509 31.4246 22.5002 31.1836C22.922 28.6992 23.3439 26.2148 23.7658 23.7304C23.8614 23.553 23.9903 23.4124 24.1525 23.3086Z" fill="black"/>
<path opacity="0.886" fill-rule="evenodd" clip-rule="evenodd" d="M29.074 27.0351C29.8454 26.9277 30.1852 27.2558 30.0935 28.0195C29.7058 28.5938 29.2605 28.6407 28.7576 28.1601C28.5588 27.6926 28.6642 27.3177 29.074 27.0351Z" fill="black"/>
</g>
<defs>
<clipPath id="clip0_124_107">
<rect width="36" height="36" fill="white"/>
</clipPath>
</defs>
</svg>
