<svg width="35" height="33" viewBox="0 0 35 33" fill="none" xmlns="http://www.w3.org/2000/svg">
<path fill-rule="evenodd" clip-rule="evenodd" d="M10.4352 8.49058C11.3584 8.94276 12.4388 8.94275 13.3619 8.48991C14.277 8.0458 15.2721 7.80124 16.3121 7.80124C20.8083 7.80124 22.4222 10.3282 22.4222 15.9491C22.4222 20.5756 18.1289 25.6026 14.275 26.5156C13.4472 26.7118 12.639 26.1327 11.8986 26.1327C11.1582 26.1327 10.3506 26.7118 9.52216 26.5156C5.66828 25.6026 1.375 20.5756 1.375 15.9491C1.375 10.3282 2.98884 7.80124 7.4857 7.80124C8.52576 7.80124 9.52014 8.0458 10.4352 8.49058Z" stroke="#F9F2DA" stroke-width="1.5" stroke-miterlimit="2" stroke-linecap="round" stroke-linejoin="round"/>
<path d="M24.7986 13.4739C25.6485 13.0983 26.5623 12.8934 27.5143 12.8934C32.0112 12.8934 33.625 15.4203 33.625 21.0405C33.625 25.6677 29.3317 30.6947 25.4778 31.6078C24.6494 31.804 23.8418 31.2248 23.1014 31.2248C22.361 31.2248 21.5528 31.8053 20.725 31.6078C19.2032 31.2443 17.6095 30.2298 16.2389 28.8491" stroke="#F9F2DA" stroke-width="1.5" stroke-miterlimit="2" stroke-linecap="round" stroke-linejoin="round"/>
<path d="M11.6332 8.81979C11.6332 8.81979 10.6193 8.51207 10.1974 5.37307C9.77478 2.23407 15.3675 1.35123 15.3675 1.35123C15.3675 1.35123 15.5307 3.35745 14.7547 5.37307" stroke="#F9F2DA" stroke-width="1.5" stroke-miterlimit="2" stroke-linecap="round" stroke-linejoin="round"/>
<path d="M21.4661 9.49905C22.1534 7.14077 26.5703 6.44336 26.5703 6.44336C26.5703 6.44336 26.7336 8.44958 25.9576 10.4652" stroke="#F9F2DA" stroke-width="1.5" stroke-miterlimit="2" stroke-linecap="round" stroke-linejoin="round"/>
<path d="M20.0457 12.2148C20.0457 12.2148 21.1489 15.9847 19.0278 19.6827" stroke="#F9F2DA" stroke-width="1.5" stroke-miterlimit="2" stroke-linecap="round" stroke-linejoin="round"/>
<path d="M31.2486 17.3069C31.2486 17.3069 31.7666 19.0766 31.4098 21.3805" stroke="#F9F2DA" stroke-width="1.5" stroke-miterlimit="2" stroke-linecap="round" stroke-linejoin="round"/>
<path d="M30.8737 23.417C30.7023 23.8664 30.4907 24.3213 30.23 24.7748" stroke="#F9F2DA" stroke-width="1.5" stroke-miterlimit="2" stroke-linecap="round" stroke-linejoin="round"/>
</svg>
