<svg width="23" height="26" viewBox="0 0 23 26" fill="none" xmlns="http://www.w3.org/2000/svg">
<path d="M19.8056 0H3.19444C1.43367 0 0 1.43239 0 3.19444V22.3611C0 24.1232 1.43367 25.5556 3.19444 25.5556H19.8056C21.5663 25.5556 23 24.1232 23 22.3611V3.19444C23 1.43239 21.5663 0 19.8056 0ZM21.7222 22.3611C21.7222 23.4178 20.8623 24.2778 19.8056 24.2778H3.19444C2.13772 24.2778 1.27778 23.4178 1.27778 22.3611V3.19444C1.27778 2.13772 2.13772 1.27778 3.19444 1.27778H19.8056C20.8623 1.27778 21.7222 2.13772 21.7222 3.19444V22.3611Z" fill="#F9F2DA"/>
<path d="M7.02778 6.38889H5.75C5.39733 6.38889 5.11111 6.67511 5.11111 7.02777C5.11111 7.38044 5.39733 7.66666 5.75 7.66666H7.02778C7.38044 7.66666 7.66667 7.38044 7.66667 7.02777C7.66667 6.67511 7.38044 6.38889 7.02778 6.38889Z" fill="#F9F2DA"/>
<path d="M17.25 6.38889H9.58333C9.23067 6.38889 8.94444 6.67511 8.94444 7.02777C8.94444 7.38044 9.23067 7.66666 9.58333 7.66666H17.25C17.6027 7.66666 17.8889 7.38044 17.8889 7.02777C17.8889 6.67511 17.6027 6.38889 17.25 6.38889Z" fill="#F9F2DA"/>
<path d="M7.02778 11.5H5.75C5.39733 11.5 5.11111 11.7862 5.11111 12.1389C5.11111 12.4916 5.39733 12.7778 5.75 12.7778H7.02778C7.38044 12.7778 7.66667 12.4916 7.66667 12.1389C7.66667 11.7862 7.38044 11.5 7.02778 11.5Z" fill="#F9F2DA"/>
<path d="M17.25 11.5H9.58333C9.23067 11.5 8.94444 11.7862 8.94444 12.1389C8.94444 12.4916 9.23067 12.7778 9.58333 12.7778H17.25C17.6027 12.7778 17.8889 12.4916 17.8889 12.1389C17.8889 11.7862 17.6027 11.5 17.25 11.5Z" fill="#F9F2DA"/>
<path d="M7.02778 16.6111H5.75C5.39733 16.6111 5.11111 16.8973 5.11111 17.25C5.11111 17.6027 5.39733 17.8889 5.75 17.8889H7.02778C7.38044 17.8889 7.66667 17.6027 7.66667 17.25C7.66667 16.8973 7.38044 16.6111 7.02778 16.6111Z" fill="#F9F2DA"/>
<path d="M17.25 16.6111H9.58333C9.23067 16.6111 8.94444 16.8973 8.94444 17.25C8.94444 17.6027 9.23067 17.8889 9.58333 17.8889H17.25C17.6027 17.8889 17.8889 17.6027 17.8889 17.25C17.8889 16.8973 17.6027 16.6111 17.25 16.6111Z" fill="#F9F2DA"/>
</svg>
