<svg width="15" height="15" viewBox="0 0 15 15" fill="none" xmlns="http://www.w3.org/2000/svg">
<path d="M10.1163 2.80357L12.1791 4.84672M1 14L1.03461 13.76C1.15707 12.911 1.2183 12.4865 1.35758 12.0901C1.48117 11.7384 1.64999 11.404 1.85991 11.0951C2.09646 10.7469 2.40261 10.4437 3.01491 9.83725L11.5099 1.42315C12.0796 0.85895 13.0031 0.85895 13.5728 1.42315C14.1424 1.98735 14.1424 2.9021 13.5728 3.4663L4.92185 12.0347C4.36636 12.585 4.08863 12.86 3.77227 13.0788C3.49147 13.2729 3.18862 13.4338 2.86995 13.5581C2.51093 13.6981 2.12588 13.775 1.35585 13.9288L1 14Z" stroke="white" stroke-linecap="round" stroke-linejoin="round"/>
</svg>
