<svg width="20" height="20" viewBox="0 0 20 20" fill="none" xmlns="http://www.w3.org/2000/svg">
<path fill-rule="evenodd" clip-rule="evenodd" d="M0 9.99994C0 9.57511 0.344396 9.23071 0.769231 9.23071H19.2308C19.6556 9.23071 20 9.57511 20 9.99994C20 10.4248 19.6556 10.7692 19.2308 10.7692H0.769231C0.344396 10.7692 0 10.4248 0 9.99994Z" fill="white"/>
<path fill-rule="evenodd" clip-rule="evenodd" d="M10.0003 -3.36241e-08C10.4251 -1.5054e-08 10.7695 0.344396 10.7695 0.769231L10.7695 19.2308C10.7695 19.6556 10.4251 20 10.0003 20C9.57547 20 9.23107 19.6556 9.23107 19.2308L9.23107 0.769231C9.23107 0.344396 9.57547 -5.21942e-08 10.0003 -3.36241e-08Z" fill="white"/>
</svg>
