<svg width="16" height="24" viewBox="0 0 16 24" fill="none" xmlns="http://www.w3.org/2000/svg">
<path d="M7.21812 0.0918971C5.98046 0.379537 5.00534 1.18225 4.44277 2.38633C3.8677 3.60378 3.89895 5.04198 4.51778 6.31295C4.81157 6.91499 5.59917 7.73108 6.18674 8.0321C7.75569 8.86157 9.54966 8.56725 10.7561 7.2829C11.5687 6.41998 11.9437 5.49017 11.95 4.30616C11.9562 3.5302 11.8437 2.98837 11.5312 2.3395C10.7186 0.63373 8.90583 -0.309461 7.21812 0.0918971ZM8.67455 1.09529C9.43715 1.28928 10.131 1.81774 10.556 2.5268C11.2624 3.70412 11.1436 5.343 10.2748 6.4066C9.53091 7.32303 8.21199 7.71101 7.11186 7.34979C6.28675 7.07553 5.65542 6.48687 5.27413 5.64402C4.69905 4.35967 4.95534 2.88803 5.92421 1.91808C6.6993 1.14212 7.68068 0.847788 8.67455 1.09529Z" fill="#F9F2DA"/>
<path d="M3.55539 9.9118C2.36774 10.3734 1.48638 11.2162 0.961315 12.4002C0.52376 13.3835 0.530011 13.31 0.530011 17.5844C0.530011 21.1164 0.536262 21.4575 0.642525 21.7318C0.930061 22.5011 1.43637 23.0563 2.10521 23.3506L2.46775 23.5045L7.78092 23.5245C11.5876 23.5379 13.2003 23.5245 13.4691 23.471C14.4818 23.257 15.2506 22.4208 15.4444 21.3104C15.4881 21.0495 15.5006 19.6916 15.4881 17.2968C15.4631 13.2899 15.4694 13.3635 15.0381 12.4002C14.5943 11.4035 13.8879 10.6342 12.9691 10.1593C12.0377 9.67767 11.5001 9.64423 10.7188 10.0255C9.69991 10.5272 9.02482 10.6944 7.9997 10.6944C6.96832 10.6944 6.28698 10.5272 5.28061 10.0255C4.67428 9.7245 4.13046 9.69105 3.55539 9.9118ZM5.05558 11.0222C6.19322 11.5707 6.95582 11.7246 8.26848 11.6778C9.33736 11.6443 9.87493 11.5172 10.7188 11.1159C11.4814 10.7547 11.6377 10.7212 11.9814 10.8149C12.9253 11.0891 13.8192 11.9119 14.2255 12.8818C14.5505 13.6511 14.5693 13.9856 14.5505 17.7851L14.5318 21.297L14.3442 21.6515C14.1442 22.0462 13.8004 22.3405 13.4066 22.4609C13.0566 22.5613 2.94281 22.5613 2.59277 22.4609C2.19897 22.3405 1.85518 22.0462 1.65515 21.6515L1.46763 21.297L1.44888 17.852C1.42387 14.1863 1.44888 13.7247 1.71766 13.0223C2.08021 12.0591 2.88031 11.2363 3.77417 10.8951C4.24923 10.7145 4.4555 10.7346 5.05558 11.0222Z" fill="#F9F2DA"/>
</svg>
